HIERARCHY
ROOT Hips
{
	OFFSET 0.00000 0.00000 0.00000
	CHANNELS 6 Xposition Yposition Zposition Zrotation Yrotation Xrotation 
	JOINT LHipJoint
	{
		OFFSET 0 0 0
		CHANNELS 3 Zrotation Yrotation Xrotation
		JOINT LeftHip
		{
			OFFSET 1.37324 -1.83837 0.85674
			CHANNELS 3 Zrotation Yrotation Xrotation
			JOINT LeftKnee
			{
				OFFSET 2.53826 -6.97383 0.00000
				CHANNELS 3 Zrotation Yrotation Xrotation
				JOINT LeftAnkle
				{
					OFFSET 2.65296 -7.28895 0.00000
					CHANNELS 3 Zrotation Yrotation Xrotation
					JOINT LeftToe
					{
						OFFSET 0.22100 -0.60718 2.29776
						CHANNELS 3 Zrotation Yrotation Xrotation
						End Site
						{
							OFFSET 0.00000 -0.00000 1.19228
						}
					}
				}
			}
		}
	}
	JOINT RHipJoint
	{
		OFFSET 0 0 0
		CHANNELS 3 Zrotation Yrotation Xrotation
		JOINT RightHip
		{
			OFFSET -1.30156 -1.83836 0.85673
			CHANNELS 3 Zrotation Yrotation Xrotation
			JOINT RightKnee
			{
				OFFSET -2.63627 -7.24310 0.00000
				CHANNELS 3 Zrotation Yrotation Xrotation
				JOINT RightAnkle
				{
					OFFSET -2.62024 -7.19904 0.00000
					CHANNELS 3 Zrotation Yrotation Xrotation
					JOINT RightToe
					{
						OFFSET -0.20765 -0.57052 2.42402
						CHANNELS 3 Zrotation Yrotation Xrotation
						End Site
						{
							OFFSET -0.00000 -0.00000 1.24980
						}
					}
				}
			}
		}
	}
	JOINT lowerback
	{
		OFFSET 0 0 0
		CHANNELS 3 Zrotation Yrotation Xrotation
		JOINT Chest
		{
			OFFSET 0.05739 2.14162 -0.22815
			CHANNELS 3 Zrotation Yrotation Xrotation
			JOINT Chest2
			{
				OFFSET 0.02798 2.14167 0.08145
				CHANNELS 3 Zrotation Yrotation Xrotation
				JOINT lowerneck
				{
					OFFSET 0 0 0
					CHANNELS 3 Zrotation Yrotation Xrotation
					JOINT Neck
					{
						OFFSET -0.07019 1.58903 0.32980
						CHANNELS 3 Zrotation Yrotation Xrotation
						JOINT Head
						{
							OFFSET -0.03205 1.65283 -0.21190
							CHANNELS 3 Zrotation Yrotation Xrotation
							End Site
							{
								OFFSET -0.00726 1.66788 -0.10849
							}
						}
					}
				}
				JOINT LeftCollar
				{
					OFFSET 0 0 0
					CHANNELS 3 Zrotation Yrotation Xrotation
					JOINT LeftShoulder
					{
						OFFSET 3.92858 0.97533 -0.07938
CHANNELS 3 Zrotation Xrotation Yrotation
						JOINT LeftElbow
						{
OFFSET 0 -5.583450 -0.000000
CHANNELS 3 Zrotation Xrotation Yrotation
							JOINT LeftWrist
							{
OFFSET 0 -3.710870 0.000000
CHANNELS 3 Zrotation Xrotation Yrotation
								JOINT lhand
								{
									OFFSET 0 0 0
CHANNELS 3 Zrotation Xrotation Yrotation
									JOINT LFingers
									{
OFFSET 0 -0.562320 -0.000000
CHANNELS 3 Zrotation Xrotation Yrotation
										End Site
										{
OFFSET 0 -0.453360 -0.000000
										}
									}
								}
								JOINT LThumb
								{
OFFSET 0 0.000000 0.000000
CHANNELS 3 Zrotation Xrotation Yrotation
									End Site
									{
OFFSET 0 -0.460280 0.460280
									}
								}
							}
						}
					}
				}
				JOINT RightCollar
				{
					OFFSET 0 0 0
					CHANNELS 3 Zrotation Yrotation Xrotation
					JOINT RightShoulder
					{
						OFFSET -3.89897 1.08887 -0.22589
CHANNELS 3 Zrotation Xrotation Yrotation
						JOINT RightElbow
						{
OFFSET 0 -5.203570 -0.000000
CHANNELS 3 Zrotation Xrotation Yrotation
							JOINT RightWrist
							{
OFFSET 0 -3.649370 0.000000
CHANNELS 3 Zrotation Xrotation Yrotation
								JOINT rhand
								{
									OFFSET 0 0 0
CHANNELS 3 Zrotation Xrotation Yrotation
									JOINT RFingers
									{
OFFSET 0 -0.618000 -0.000000
CHANNELS 3 Zrotation Xrotation Yrotation
										End Site
										{
OFFSET 0 -0.498240 -0.000000
										}
									}
								}
								JOINT RThumb
								{
OFFSET 0 0.000000 0.000000
CHANNELS 3 Zrotation Xrotation Yrotation
									End Site
									{
OFFSET 0 -0.505850 0.505850
									}
								}
							}
						}
					}
				}
			}
		}
	}
}
MOTION
Frames: 12
Frame Time: 0.008333333333333333
-2.510700 16.606100 -47.770300 8.220800 2.286400 15.532600 0.000000 0.000000 0.000000 -31.209500 -1.511800 4.584200 6.711100 15.083700 47.773100 0.592400 -0.560300 14.754700 0.049000 -1.428300 -3.928100 0.000000 0.000000 0.000000 12.232800 4.135500 -65.072300 -9.728900 -17.254600 58.578500 -0.505300 7.747800 -12.972000 -2.188200 9.247600 -26.572800 -7.399500 -1.233500 16.314300 0.273100 -3.001300 0.085600 5.191300 -1.113900 -8.691100 0.202200 1.843000 -25.103700 -5.970600 3.238400 7.472500 -1.595200 1.015800 6.375000 -0.000000 -0.000000 0.000000 3.939700 4.492700 -54.270500 118.427900 -56.714500 84.347700 18.298800 -22.106700 7.469000 0.000000 0.000000 0.000000 -7.125000 0.000000 0.000000 -6.202800 22.133500 -3.428300 -0.000000 -0.000000 0.000000 -5.139800 34.592600 18.131400 -53.982000 -54.480500 -29.385600 -36.790100 -8.965500 -0.264000 0.000000 0.000000 0.000000 7.125000 0.000000 -0.000000 -8.014800 29.604000 -3.036000
-2.505156 16.606956 -47.643887 8.128531 2.259558 15.438686 0.000000 0.000000 0.000000 -31.023475 -1.514617 4.043862 7.015267 15.327106 48.901736 0.577322 -0.699312 14.623013 0.056392 -1.522101 -4.186809 0.000000 0.000000 0.000000 12.515218 4.029619 -64.671312 -9.729734 -17.255073 58.581272 -0.478323 7.762134 -12.653026 -2.003933 8.833269 -25.301862 -7.284919 -1.193902 16.362260 0.299875 -2.926453 0.131058 5.139847 -1.083790 -8.681927 0.149665 1.810208 -25.146206 -5.981441 3.212549 7.452126 -1.593645 1.000362 6.373467 0.000000 0.000000 0.000000 3.875851 4.598424 -53.882922 117.186013 -56.986033 83.302160 18.343537 -21.368279 7.459895 0.000000 0.000000 0.000000 -7.125000 0.000000 0.000000 -6.170301 22.140870 -3.409121 0.000000 0.000000 0.000000 -5.022537 34.125937 18.021687 -53.809114 -54.420122 -29.245123 -36.781378 -8.896039 -0.202472 0.000000 0.000000 0.000000 7.125000 0.000000 0.000000 -8.014214 29.680177 -3.021080
-2.499612 16.607813 -47.517474 8.036262 2.232716 15.344772 0.000000 0.000000 0.000000 -30.837450 -1.517434 3.503524 7.319434 15.570511 50.030372 0.562245 -0.838323 14.491326 0.063785 -1.615903 -4.445517 0.000000 0.000000 0.000000 12.797636 3.923737 -64.270323 -9.730568 -17.255547 58.584044 -0.451345 7.776468 -12.334052 -1.819666 8.418939 -24.030924 -7.170338 -1.154303 16.410220 0.326649 -2.851606 0.176517 5.088393 -1.053680 -8.672754 0.097130 1.777416 -25.188712 -5.992281 3.186699 7.431752 -1.592090 0.984924 6.371935 0.000000 0.000000 0.000000 3.812002 4.704147 -53.495343 115.944125 -57.257565 82.256620 18.388274 -20.629859 7.450790 0.000000 0.000000 0.000000 -7.125000 0.000000 0.000000 -6.137802 22.148240 -3.389941 0.000000 0.000000 0.000000 -4.905274 33.659274 17.911974 -53.636229 -54.359744 -29.104647 -36.772656 -8.826578 -0.140945 0.000000 0.000000 0.000000 7.125000 0.000000 0.000000 -8.013628 29.756354 -3.006160
-2.494067 16.608669 -47.391060 7.943994 2.205873 15.250858 0.000000 0.000000 0.000000 -30.651425 -1.520252 2.963186 7.623601 15.813917 51.159008 0.547167 -0.977335 14.359639 0.071177 -1.709704 -4.704226 0.000000 0.000000 0.000000 13.080055 3.817856 -63.869335 -9.731402 -17.256020 58.586816 -0.424368 7.790802 -12.015078 -1.635399 8.004608 -22.759985 -7.055757 -1.114705 16.458180 0.353424 -2.776758 0.221975 5.036940 -1.023569 -8.663582 0.044595 1.744624 -25.231218 -6.003122 3.160848 7.411378 -1.590535 0.969485 6.370402 0.000000 0.000000 0.000000 3.748153 4.809871 -53.107765 114.702238 -57.529098 81.211080 18.433011 -19.891438 7.441684 0.000000 0.000000 0.000000 -7.125000 0.000000 0.000000 -6.105303 22.155609 -3.370762 0.000000 0.000000 0.000000 -4.788011 33.192612 17.802261 -53.463343 -54.299366 -28.964170 -36.763934 -8.757118 -0.079417 0.000000 0.000000 0.000000 7.125000 0.000000 0.000000 -8.013042 29.832531 -2.991240
-2.488523 16.609526 -47.264647 7.851725 2.179031 15.156944 0.000000 0.000000 0.000000 -30.465400 -1.523069 2.422848 7.927768 16.057323 52.287644 0.532089 -1.116347 14.227952 0.078569 -1.803505 -4.962935 0.000000 0.000000 0.000000 13.362473 3.711974 -63.468347 -9.732236 -17.256493 58.589588 -0.397390 7.805136 -11.696104 -1.451132 7.590278 -21.489047 -6.941176 -1.075106 16.506140 0.380198 -2.701911 0.267433 4.985487 -0.993459 -8.654409 -0.007940 1.711831 -25.273723 -6.013962 3.134998 7.391004 -1.588980 0.954047 6.368870 0.000000 0.000000 0.000000 3.684304 4.915595 -52.720186 113.460351 -57.800630 80.165540 18.477748 -19.153017 7.432579 0.000000 0.000000 0.000000 -7.125000 0.000000 0.000000 -6.072803 22.162979 -3.351582 0.000000 0.000000 0.000000 -4.670748 32.725949 17.692549 -53.290457 -54.238987 -28.823693 -36.755212 -8.687657 -0.017890 0.000000 0.000000 0.000000 7.125000 0.000000 0.000000 -8.012456 29.908708 -2.976321
-2.483753 16.608035 -47.138805 7.742378 2.160817 15.062408 0.000000 0.000000 0.000000 -30.246171 -1.521572 1.894931 8.241489 16.283803 53.411992 0.509970 -1.281622 14.008161 0.089958 -1.922999 -5.293152 0.000000 0.000000 0.000000 13.683703 3.591184 -63.080389 -9.759638 -17.272243 58.681619 -0.382530 7.858637 -11.530868 -1.239966 6.945219 -19.594680 -6.819744 -1.037182 16.562359 0.412873 -2.628497 0.298529 4.937333 -0.962918 -8.664991 -0.060336 1.679775 -25.256178 -6.017736 3.106977 7.352106 -1.585331 0.939776 6.352036 0.000000 0.000000 0.000000 3.621394 5.050691 -52.344483 112.163995 -58.041484 79.066546 18.603662 -18.516175 7.429514 0.000000 0.000000 0.000000 -7.125000 0.000000 0.000000 -5.981014 22.159996 -3.300759 0.000000 0.000000 0.000000 -4.564156 32.278166 17.598987 -53.102676 -54.172075 -28.671455 -36.731975 -8.622586 -0.014663 0.000000 0.000000 0.000000 7.125000 0.000000 0.000000 -7.994653 29.912996 -2.968683
-2.479583 16.604722 -47.013406 7.619774 2.149300 14.967390 0.000000 0.000000 0.000000 -30.001165 -1.516727 1.376657 8.562626 16.497143 54.533010 0.482384 -1.467287 13.719973 0.104450 -2.062439 -5.678882 0.000000 0.000000 0.000000 14.035064 3.458821 -62.702547 -9.807665 -17.299851 58.842943 -0.377075 7.942544 -11.484981 -1.007920 6.121043 -17.216337 -6.692992 -1.000559 16.624991 0.450128 -2.556197 0.318474 4.891739 -0.932041 -8.690909 -0.112623 1.648290 -25.192013 -6.016023 3.077273 7.298827 -1.580057 0.926411 6.323323 0.000000 0.000000 0.000000 3.559213 5.208589 -51.978000 110.825354 -58.258520 77.926055 18.792594 -17.958190 7.431136 0.000000 0.000000 0.000000 -7.125000 0.000000 0.000000 -5.843197 22.148975 -3.225371 0.000000 0.000000 0.000000 -4.465847 31.845039 17.517965 -52.903332 -54.100090 -28.510086 -36.697470 -8.560923 -0.056695 0.000000 0.000000 0.000000 7.125000 0.000000 0.000000 -7.963483 29.861475 -2.966700
-2.475414 16.601409 -46.888007 7.497170 2.137783 14.872371 0.000000 0.000000 0.000000 -29.756159 -1.511881 0.858383 8.883764 16.710484 55.654029 0.454798 -1.652951 13.431785 0.118942 -2.201879 -6.064613 0.000000 0.000000 0.000000 14.386424 3.326458 -62.324704 -9.855693 -17.327460 59.004267 -0.371621 8.026451 -11.439095 -0.775873 5.296867 -14.837993 -6.566241 -0.963935 16.687623 0.487382 -2.483896 0.338420 4.846146 -0.901165 -8.716827 -0.164910 1.616805 -25.127849 -6.014310 3.047568 7.245548 -1.574783 0.913047 6.294610 0.000000 0.000000 0.000000 3.497032 5.366487 -51.611517 109.486713 -58.475557 76.785564 18.981527 -17.400205 7.432759 0.000000 0.000000 0.000000 -7.125000 0.000000 0.000000 -5.705380 22.137954 -3.149983 0.000000 0.000000 0.000000 -4.367538 31.411912 17.436942 -52.703987 -54.028105 -28.348717 -36.662965 -8.499261 -0.098728 0.000000 0.000000 0.000000 7.125000 0.000000 0.000000 -7.932314 29.809954 -2.964717
-2.471244 16.598096 -46.762608 7.374565 2.126266 14.777353 0.000000 0.000000 0.000000 -29.511153 -1.507035 0.340110 9.204902 16.923825 56.775047 0.427212 -1.838616 13.143597 0.133433 -2.341319 -6.450343 0.000000 0.000000 0.000000 14.737785 3.194095 -61.946862 -9.903720 -17.355068 59.165591 -0.366167 8.110359 -11.393208 -0.543826 4.472691 -12.459649 -6.439490 -0.927312 16.750255 0.524637 -2.411596 0.358366 4.800552 -0.870288 -8.742746 -0.217197 1.585320 -25.063684 -6.012597 3.017864 7.192270 -1.569510 0.899682 6.265897 0.000000 0.000000 0.000000 3.434851 5.524385 -51.245034 108.148071 -58.692594 75.645073 19.170459 -16.842220 7.434382 0.000000 0.000000 0.000000 -7.125000 0.000000 0.000000 -5.567562 22.126933 -3.074595 0.000000 0.000000 0.000000 -4.269229 30.978785 17.355920 -52.504642 -53.956120 -28.187348 -36.628460 -8.437598 -0.140760 0.000000 0.000000 0.000000 7.125000 0.000000 0.000000 -7.901144 29.758433 -2.962734
-2.467234 16.594383 -46.637399 7.248490 2.116870 14.681265 0.000000 0.000000 0.000000 -29.258729 -1.501801 -0.180372 9.526162 17.132519 57.889702 0.399578 -2.019643 12.847086 0.148986 -2.484207 -6.845905 0.000000 0.000000 0.000000 15.090550 3.061965 -61.557157 -9.953397 -17.383480 59.332265 -0.368572 8.075814 -11.427250 -0.336638 3.724904 -10.304331 -6.310079 -0.890617 16.816477 0.562303 -2.338759 0.378530 4.753804 -0.839199 -8.770446 -0.266309 1.553761 -25.006425 -6.010711 2.987481 7.144775 -1.564775 0.885840 6.240136 0.000000 0.000000 0.000000 3.373856 5.678776 -50.875431 106.800116 -58.901593 74.495328 19.352472 -16.302748 7.435187 0.000000 0.000000 0.000000 -7.125000 0.000000 0.000000 -5.434794 22.117079 -3.001874 0.000000 0.000000 0.000000 -4.172521 30.545621 17.281226 -52.308717 -53.885109 -28.028815 -36.598513 -8.368973 -0.174279 0.000000 0.000000 0.000000 7.125000 0.000000 0.000000 -7.874385 29.717370 -2.960432
-2.464327 16.587892 -46.513510 7.098322 2.122189 14.577750 0.000000 0.000000 0.000000 -28.954810 -1.493868 -0.716180 9.848268 17.308966 58.960191 0.371609 -2.168481 12.492795 0.171907 -2.651030 -7.309705 0.000000 0.000000 0.000000 15.453067 2.931450 -61.085108 -10.014519 -17.417466 59.536072 -0.425524 7.219071 -12.016089 -0.301998 3.507349 -9.697079 -6.162211 -0.853430 16.907619 0.602825 -2.262199 0.400211 4.699037 -0.806632 -8.810518 -0.293376 1.521690 -24.997094 -6.007624 2.952390 7.137428 -1.563783 0.868689 6.234862 0.000000 0.000000 0.000000 3.321096 5.808817 -50.484179 105.387507 -59.054804 73.281342 19.486458 -15.891775 7.430319 0.000000 0.000000 0.000000 -7.125000 0.000000 0.000000 -5.337071 22.115321 -2.947672 0.000000 0.000000 0.000000 -4.086923 30.112201 17.250462 -52.136530 -53.820854 -27.889961 -36.600203 -8.252026 -0.148699 0.000000 0.000000 0.000000 7.125000 0.000000 0.000000 -7.878239 29.748901 -2.955925
-2.461419 16.581401 -46.389621 6.948154 2.127508 14.474235 0.000000 0.000000 0.000000 -28.650891 -1.485935 -1.251988 10.170375 17.485412 60.030681 0.343640 -2.317319 12.138505 0.194828 -2.817853 -7.773506 0.000000 0.000000 0.000000 15.815584 2.800935 -60.613058 -10.075641 -17.451453 59.739879 -0.482477 6.362328 -12.604928 -0.267357 3.289794 -9.089827 -6.014342 -0.816243 16.998761 0.643348 -2.185639 0.421892 4.644271 -0.774065 -8.850590 -0.320444 1.489620 -24.987764 -6.004536 2.917299 7.130080 -1.562792 0.851538 6.229588 0.000000 0.000000 0.000000 3.268335 5.938859 -50.092927 103.974897 -59.208014 72.067356 19.620444 -15.480803 7.425451 0.000000 0.000000 0.000000 -7.125000 0.000000 0.000000 -5.239348 22.113563 -2.893469 0.000000 0.000000 0.000000 -4.001326 29.678781 17.219698 -51.964343 -53.756599 -27.751107 -36.601893 -8.135078 -0.123119 0.000000 0.000000 0.000000 7.125000 0.000000 0.000000 -7.882093 29.780431 -2.951417
